<?xml version="1.0" encoding="UTF-8" standalone="no"?>
<!-- Generator: Adobe Illustrator 20.1.0, SVG Export Plug-In . SVG Version: 6.00 Build 0)  -->

<svg
   xmlns:dc="http://purl.org/dc/elements/1.1/"
   xmlns:cc="http://creativecommons.org/ns#"
   xmlns:rdf="http://www.w3.org/1999/02/22-rdf-syntax-ns#"
   xmlns="http://www.w3.org/2000/svg"
   xmlns:sodipodi="http://sodipodi.sourceforge.net/DTD/sodipodi-0.dtd"
   xmlns:inkscape="http://www.inkscape.org/namespaces/inkscape"
   version="1.1"
   id="Layer_1"
   x="0px"
   y="0px"
   viewBox="0 0 113.38582 113.38583"
   xml:space="preserve"
   sodipodi:docname="npm-logo-no-text-white.svg"
   inkscape:version="0.92.3 (2405546, 2018-03-11)"
   width="3cm"
   height="3cm"><metadata
   id="metadata70"><rdf:RDF><cc:Work
       rdf:about=""><dc:format>image/svg+xml</dc:format><dc:type
         rdf:resource="http://purl.org/dc/dcmitype/StillImage" /><dc:title></dc:title></cc:Work></rdf:RDF></metadata><defs
   id="defs68">
	
	
	
	
</defs><sodipodi:namedview
   pagecolor="#ffffff"
   bordercolor="#666666"
   borderopacity="1"
   objecttolerance="10"
   gridtolerance="10"
   guidetolerance="10"
   inkscape:pageopacity="1"
   inkscape:pageshadow="2"
   inkscape:window-width="1858"
   inkscape:window-height="1057"
   id="namedview66"
   showgrid="false"
   inkscape:zoom="4.2597403"
   inkscape:cx="133.1942"
   inkscape:cy="34.087578"
   inkscape:window-x="-8"
   inkscape:window-y="-8"
   inkscape:window-maximized="1"
   inkscape:current-layer="Layer_1"
   fit-margin-top="10"
   fit-margin-left="12"
   fit-margin-right="8"
   fit-margin-bottom="10"
   units="cm"
   inkscape:pagecheckerboard="false" />
<style
   type="text/css"
   id="style2">
	.st0{fill:#003DA6;}
	.st1{enable-background:new    ;}
</style>
<g
   id="svg8"
   inkscape:version="0.92.3 (2405546, 2018-03-11)"
   sodipodi:docname="npm-logo.svg"
   transform="translate(-26.121919,8.4858361)">
	
		<sodipodi:namedview
   bordercolor="#666666"
   borderopacity="1.0"
   fit-margin-bottom="0"
   fit-margin-left="0"
   fit-margin-right="0"
   fit-margin-top="0"
   id="base"
   inkscape:current-layer="layer1"
   inkscape:cx="178.17652"
   inkscape:cy="37.927645"
   inkscape:document-units="mm"
   inkscape:pageopacity="0.0"
   inkscape:pageshadow="2"
   inkscape:window-height="1057"
   inkscape:window-maximized="1"
   inkscape:window-width="1858"
   inkscape:window-x="-8"
   inkscape:window-y="-8"
   inkscape:zoom="1.979899"
   pagecolor="#ffffff"
   showgrid="false">
		</sodipodi:namedview>
	<path
   class="st0"
   d="m 126.2,60.6 h -5.8 -5.6 -59.3 c -1.8,0 -3.3,1.5 -3.3,3.3 0,1.8 1.5,3.3 3.3,3.3 h 56.3 C 105.2,79.5 92.3,87.7 78.1,88.2 61.7,88.8 46.3,79 39.9,63.9 33.5,48.8 37.1,31 48.9,19.6 60.8,8.2 78.7,5.2 93.6,12.2 95.3,13 97.2,12.3 98,10.6 98.8,8.9 98.1,7 96.4,6.2 79.1,-2 58.1,1.5 44.3,14.8 30.5,28.1 26.3,48.9 33.8,66.5 c 7.3,17.1 24.4,28.4 42.9,28.4 0.5,0 1.1,0 1.6,0 17.8,-0.6 33.7,-11.6 40.9,-27.7 h 6.9 c 1.8,0 3.3,-1.5 3.3,-3.3 0,-1.8 -1.4,-3.3 -3.2,-3.3 z"
   id="path5"
   inkscape:connector-curvature="0"
   style="fill:#003da6" />
</g>
<g
   style="enable-background:new"
   id="g14"
   class="st1"
   transform="translate(-26.121919,8.4858361)">
		<path
   style="fill:#003da6"
   inkscape:connector-curvature="0"
   id="path8"
   d="m 61.3,25.4 c 0.8,-3.6 2.6,-5.1 6.2,-5.1 h 2.2 L 70.4,38 h 0.3 l 2.7,-12.5 c 0.8,-3.6 2.6,-5.1 6.2,-5.1 h 0.9 L 73.8,51.9 C 73,55.5 71.2,57 67.6,57 H 65.4 L 64.7,39.3 h -0.3 l -2.7,12.5 c -0.8,3.6 -2.6,5.1 -6.2,5.1 h -0.9 z"
   class="st0" />
		<path
   style="fill:#003da6"
   inkscape:connector-curvature="0"
   id="path10"
   d="m 83.7,25.4 c 0.8,-3.6 2.6,-5.1 6.2,-5.1 h 11.8 L 97.6,39.4 C 96.8,43 95,44.5 91.4,44.5 H 87 l -1.6,7.3 c -0.8,3.6 -2.6,5.1 -6.2,5.1 H 77 Z m 5,15 c 0.6,0 1.4,-0.4 1.7,-1.8 l 2.7,-12.5 c 0.3,-1.3 -0.3,-1.8 -1,-1.8 h -0.9 l -3.4,16.1 z"
   class="st0" />
		<path
   style="fill:#003da6"
   inkscape:connector-curvature="0"
   id="path12"
   d="m 122.5,25.4 c 1.2,-3 2.3,-5.1 6.2,-5.1 h 5.3 l -6.7,31.5 c -0.8,3.6 -2.6,5.1 -6.2,5.1 h -2.2 l 4.9,-23 h -0.3 l -6.7,17.9 c -1.2,3 -2.3,5.1 -6.2,5.1 H 109 l 1.1,-23 h -0.3 L 106,51.8 c -0.8,3.6 -2.6,5.1 -6.2,5.1 h -2.2 l 6.7,-31.5 c 0.8,-3.6 2.6,-5.1 6.2,-5.1 h 4.4 L 114.3,46 Z"
   class="st0" />
	</g>
</svg>